<svg height="512pt" viewBox="0 -26 512 512" width="512pt" xmlns="http://www.w3.org/2000/svg"><path d="m51.199219 238.933594h170.667969v213.332031h-170.667969zm0 0" fill="#b49aca"/><path d="m503.464844 93.867188c0 47.128906-38.203125 85.332031-85.332032 85.332031-47.128906 0-85.332031-38.203125-85.332031-85.332031 0-47.128907 38.203125-85.332032 85.332031-85.332032 47.128907 0 85.332032 38.203125 85.332032 85.332032zm0 0" fill="#b0d3f0"/><path d="m418.132812 0c-51.839843 0-93.867187 42.027344-93.867187 93.867188 0 51.839843 42.027344 93.867187 93.867187 93.867187 51.839844 0 93.867188-42.027344 93.867188-93.867187-.0625-51.816407-42.050781-93.804688-93.867188-93.867188zm76.296876 85.332031h-21.46875c-.605469-19.945312-5.792969-39.484375-15.15625-57.105469 20.402343 12.328126 33.929687 33.421876 36.625 57.105469zm-84.828126-65.917969v65.917969h-29.226562c1.917969-33.816406 15.144531-58.539062 29.226562-65.917969zm0 82.984376v65.921874c-14.082031-7.382812-27.308593-32.101562-29.226562-65.921874zm17.066407 65.921874v-65.921874h29.226562c-1.921875 33.820312-15.148437 58.539062-29.226562 65.921874zm0-82.988281v-65.917969c14.078125 7.378907 27.304687 32.101563 29.226562 65.917969zm-48.207031-57.105469c-9.363282 17.621094-14.550782 37.160157-15.152344 57.105469h-21.472656c2.695312-23.683593 16.222656-44.777343 36.625-57.105469zm-36.625 74.171876h21.472656c.601562 19.945312 5.789062 39.484374 15.152344 57.105468-20.402344-12.324218-33.929688-33.417968-36.625-57.105468zm115.96875 57.105468c9.363281-17.621094 14.550781-37.160156 15.15625-57.105468h21.46875c-2.695313 23.6875-16.222657 44.78125-36.625 57.105468zm0 0" fill="#2fa8cc"/><path d="m51.199219 264.535156h170.667969v162.132813h-170.667969zm0 0" fill="#7d6599"/><path d="m8.535156 238.933594h42.664063v213.332031h-42.664063zm0 0" fill="#b49aca"/><path d="m51.199219 230.398438h-42.664063c-4.714844 0-8.535156 3.820312-8.535156 8.535156v213.332031c0 4.714844 3.820312 8.535156 8.535156 8.535156h42.664063c4.714843 0 8.535156-3.820312 8.535156-8.535156v-213.332031c0-4.714844-3.820313-8.535156-8.535156-8.535156zm-34.132813 85.335937v-25.601563h25.601563v25.601563zm25.601563 17.066406v25.597657h-25.601563v-25.597657zm-25.601563 42.664063h25.601563v25.601562h-25.601563zm25.601563-128v25.601562h-25.601563v-25.601562zm-25.601563 196.269531v-25.601563h25.601563v25.601563zm0 0" fill="#894b9d"/><path d="m221.867188 238.933594h42.667968v213.332031h-42.667968zm0 0" fill="#b49aca"/><path d="m264.535156 230.398438h-42.667968c-4.714844 0-8.535157 3.820312-8.535157 8.535156v213.332031c0 4.714844 3.820313 8.535156 8.535157 8.535156h42.667968c4.710938 0 8.53125-3.820312 8.53125-8.535156v-213.332031c0-4.714844-3.820312-8.535156-8.53125-8.535156zm-34.136718 85.335937v-25.601563h25.601562v25.601563zm25.601562 17.066406v25.597657h-25.601562v-25.597657zm-25.601562 42.664063h25.601562v25.601562h-25.601562zm25.601562-128v25.601562h-25.601562v-25.601562zm-25.601562 196.269531v-25.601563h25.601562v25.601563zm0 0" fill="#894b9d"/><path d="m287.113281 90.847656-49.425781-49.425781c-1.21875-1.222656-3.054688-1.589844-4.652344-.929687-1.59375.660156-2.636718 2.214843-2.636718 3.941406v98.867187c0 1.726563 1.042968 3.28125 2.636718 3.941407 1.597656.660156 3.433594.292968 4.652344-.929688l49.425781-49.425781c.800781-.800781 1.253907-1.886719 1.253907-3.019531 0-1.132813-.453126-2.222657-1.253907-3.019532zm0 0" fill="#f0c419"/><path d="m230.398438 119.464844h-51.199219c-9.425781 0-17.066407 7.644531-17.066407 17.070312v42.664063c0 9.425781-7.640624 17.066406-17.066406 17.066406h-17.066406c-9.425781 0-17.066406-7.640625-17.066406-17.066406v-42.664063c0-37.703125 30.5625-68.269531 68.265625-68.269531h51.199219" fill="#f29c1f"/><path d="m421.152344 224.886719 49.425781 49.425781c1.222656 1.21875 1.589844 3.054688.929687 4.652344-.660156 1.59375-2.214843 2.636718-3.941406 2.636718h-98.867187c-1.726563 0-3.28125-1.042968-3.941407-2.636718-.660156-1.597656-.292968-3.433594.929688-4.652344l49.425781-49.425781c.800781-.800781 1.886719-1.253907 3.019531-1.253907 1.132813 0 2.222657.453126 3.019532 1.253907zm0 0" fill="#f0c419"/><path d="m443.734375 281.601562v51.199219c0 37.703125-30.566406 68.265625-68.269531 68.265625h-42.664063c-9.425781 0-17.066406-7.640625-17.066406-17.066406v-17.066406c0-9.425782 7.640625-17.066406 17.066406-17.066406h42.664063c9.425781 0 17.070312-7.640626 17.070312-17.066407v-51.199219" fill="#f29c1f"/><path d="m110.933594 315.503906v60.191406c0 3.058594 1.679687 5.867188 4.375 7.308594 2.695312 1.445313 5.96875 1.285156 8.511718-.410156l43.152344-30.097656c2.304688-1.539063 3.691406-4.125 3.691406-6.894532 0-2.773437-1.386718-5.359374-3.691406-6.898437l-43.152344-30.09375c-2.542968-1.699219-5.816406-1.855469-8.511718-.414063-2.695313 1.441407-4.375 4.25-4.375 7.308594zm0 0" fill="#d1d4d1"/></svg>